<svg version="1.2" xmlns="http://www.w3.org/2000/svg" viewBox="0 0 722 722" width="1080" height="1080">
	<title>NASPEN-Logo-ai</title>
	<style>
		.s0 { fill: #ffffff } 
	</style>
	<g id="Flag">
		<path id="Ring" fill-rule="evenodd" class="s0" d="m360.9 722.1c-48.7 0-96-9.5-140.5-28.4-42.9-18.1-81.5-44.2-114.7-77.3-33.1-33.2-59.2-71.8-77.3-114.7-18.9-44.6-28.4-91.8-28.4-140.6 0-48.7 9.5-95.9 28.4-140.5 18.1-42.9 44.2-81.5 77.3-114.7 33.2-33.1 71.8-59.2 114.7-77.3 44.5-18.9 91.8-28.4 140.5-28.4 48.8 0 96 9.5 140.5 28.4 43 18.1 81.6 44.2 114.8 77.3 33.1 33.2 59.1 71.8 77.3 114.7 18.9 44.6 28.4 91.8 28.4 140.5 0 48.8-9.5 96-28.4 140.6-18.2 42.9-44.2 81.5-77.3 114.7-33.2 33.1-71.8 59.2-114.8 77.3-44.5 18.9-91.7 28.4-140.5 28.4zm-9.5-25.1q4.7 0.1 9.5 0.1 4.8 0 9.6-0.1 3.1-0.1 6.1-0.3c62.4-2.8 120.4-22.8 169.5-55.3q12.9-8.6 25-18.3c64.9-52.2 110.2-128.1 122.4-214.4q0.3-2.1 0.6-4.1 0.3-2.3 0.6-4.6 0 0 0-0.1 0.5-4.3 0.9-8.7 0.1-2.1 0.3-4.2 0.2-2.1 0.3-4.1 0-0.1 0-0.3 0.1-2.1 0.2-4.2 0.2-2.1 0.2-4.3 0.1-2.1 0.2-4.3 0-1.6 0-3.1 0.1-2.8 0.1-5.6 0-4.3-0.1-8.6-0.1-2.2-0.2-4.3 0-2.2-0.2-4.3-0.1-2.5-0.2-5-0.1-1.8-0.3-3.6-0.2-2.1-0.3-4.2-0.4-4.4-0.9-8.7 0-0.1-0.1-0.2c-10.4-89.9-56.4-169.1-123.5-223q-12.1-9.7-25-18.3c-41.7-27.6-89.9-46.2-141.7-52.9q-2.5-0.3-5-0.6-0.3 0-0.7-0.1-2.1-0.2-4.1-0.4-1.8-0.2-3.5-0.4-0.1 0-0.3 0-1.9-0.2-3.9-0.3-0.1 0-0.2 0-1.8-0.2-3.5-0.3-1.9-0.1-3.8-0.2-1-0.1-2-0.1-1-0.1-2-0.1-4.1-0.2-8.2-0.2-1.5-0.1-2.9-0.1-0.4 0-0.7 0-1.3 0-2.7 0-0.7 0-1.5 0-0.8 0-1.6 0 0 0-0.1 0-1.5 0-3.1 0.1-2.3 0-4.6 0.1-2.3 0.1-4.7 0.2-1.5 0-3.1 0.1-3.3 0.2-6.7 0.4-1.5 0.2-3.1 0.3-1.6 0.1-3.1 0.3-1.8 0.1-3.6 0.3-2.2 0.2-4.3 0.5c-52.4 6.1-102 24.3-145.6 53.2q-12.8 8.5-25 18.3-14.3 11.5-27.4 24.6c-57.6 57.6-91.8 132.5-97.5 213q-0.2 2.3-0.3 4.6-0.1 0.4-0.1 0.9-0.1 1.7-0.1 3.5-0.1 0.8-0.1 1.7-0.1 1.4-0.1 2.8-0.1 0.9-0.1 1.8 0 1.8 0 3.5-0.1 2.9-0.1 5.7 0 2.9 0 5.6 0.1 1.9 0.1 3.8 0 0.8 0.1 1.6 0 1.5 0.1 3 0 0.8 0 1.5 0.1 1.9 0.2 3.9l0.1 0.5q0.1 2.4 0.3 4.7 0.2 3.1 0.5 6.1 0.1 1.3 0.2 2.6 0.2 1.7 0.4 3.4 0.2 2.2 0.5 4.3 0.3 2.4 0.6 4.7c9.8 72.4 42.7 139.4 95.3 191.9q13.1 13.2 27.4 24.7 12.2 9.7 25 18.2c48.6 32.2 104.7 51.1 163.7 54.8q0 0 0.1 0 2.8 0.2 5.7 0.3 3 0.2 6.1 0.3z"/>
	</g>
	<g id="PEN">
		<path id="N-Bot" class="s0" d="m453.9 590l-40.2-94.2v94.3h-40v-196.2h40l40.2 94.1v-94.2h40v196.3h-40z"/>
		<path id="E" class="s0" d="m359.9 590.1h-111.7v-196.2h111.7v40h-71.7v48.1h32.6v20h-32.6v48.1h71.7z"/>
		<path id="P" fill-rule="evenodd" class="s0" d="m170 590.1h-40v-196.2h39.5l0.5 0.3 46 41.3 29.9 26.9-29.9 26.8-46 41.3zm0-113.4l16-14.4-16-14.4z"/>
	</g>
	<g id="S">
		<g id="Middle S">
			<path id="S Bottom" class="s0" d="m221.8 354.9l-28.3 28.3-141.9-141.9h0.1-0.1l136.4-136.4 28.3 28.3-108.1 108.1z"/>
			<path id="S Middle" class="s0" d="m525.5 343.2h-331.8v40h331.8z"/>
			<path id="S Top" class="s0" d="m667.7 485.1l-136.6 136.6-28.3-28.3 108.3-108.3-113.6-113.6 28.3-28.3z"/>
		</g>
	</g>
	<g id="NA">
		<path id="A" fill-rule="evenodd" class="s0" d="m462.5 289.6h-43.7l-18.4 43.1h-43.5l18.4-43.1 8.6-20 35-82.2 21.8-51 21.7 51 35.1 82.2 8.5 20 18.4 43.1h-43.5zm-8.5-20l-13.3-31.3-13.4 31.3z"/>
		<path id="N-Top" class="s0" d="m306.4 332.5l-40.2-94.1v94.3h-40v-196.3h40l40.2 94.2v-94.2h40v196.3h-40z"/>
	</g>
</svg>